<?xml version="1.0" encoding="utf-8"?>
<!-- Generator: Adobe Illustrator 26.0.1, SVG Export Plug-In . SVG Version: 6.00 Build 0)  -->
<svg version="1.1" id="Layer_1" xmlns="http://www.w3.org/2000/svg" xmlns:xlink="http://www.w3.org/1999/xlink" x="0px" y="0px"
	 viewBox="0 0 200 30.96" style="enable-background:new 0 0 200 30.96;" xml:space="preserve">
<style type="text/css">
	.st0{fill:#00ACE8;}
</style>
<g>
	<g>
		<g>
			<path class="st0" d="M195.34,8.38c-1.96,0-3.55-1.66-3.55-3.69c0-2.03,1.59-3.69,3.55-3.69c1.96,0,3.55,1.66,3.55,3.69
				C198.89,6.72,197.3,8.38,195.34,8.38z M195.34,1.43c-1.73,0-3.14,1.46-3.14,3.26s1.41,3.26,3.14,3.26c1.73,0,3.14-1.46,3.14-3.26
				S197.07,1.43,195.34,1.43z"/>
		</g>
	</g>
	<g>
		<g>
			<g>
				<path class="st0" d="M197.28,6.77h-0.85l-0.74-1.43c-0.07-0.14-0.15-0.23-0.26-0.29c-0.1-0.05-0.23-0.08-0.38-0.08h-0.6v1.79
					h-0.77V2.31h1.9c0.49,0,0.86,0.11,1.11,0.34c0.25,0.23,0.38,0.55,0.38,0.98c0,0.34-0.09,0.62-0.28,0.85
					c-0.18,0.22-0.45,0.37-0.78,0.43c0.23,0.06,0.41,0.23,0.55,0.5L197.28,6.77z M196.12,4.18c0.14-0.12,0.21-0.29,0.21-0.54
					c0-0.24-0.07-0.42-0.21-0.54c-0.14-0.11-0.36-0.17-0.65-0.17h-1.02v1.41h1.02C195.76,4.35,195.98,4.29,196.12,4.18z"/>
			</g>
		</g>
	</g>
	<path class="st0" d="M20.57,28h3.45c1.33,0,2.56-0.75,3.21-1.97l5.2-9.65l-8.19,4.74L20.57,28z"/>
	<path class="st0" d="M35.51,16.44l5.09,9.58c0.65,1.22,1.88,1.97,3.21,1.97h3.45l-3.68-6.87L35.51,16.44z"/>
	<path class="st0" d="M21.66,15.57c0-1.07-0.13-2.11-0.41-3.1c-0.27-0.99-0.65-1.92-1.15-2.79c-0.49-0.86-1.09-1.65-1.78-2.36
		c-0.7-0.71-1.46-1.32-2.3-1.83c-0.84-0.51-1.74-0.91-2.71-1.18c-0.97-0.28-1.97-0.41-3.01-0.41H1v23.35h9.31
		c1.04,0,2.04-0.14,3.01-0.42c0.97-0.28,1.87-0.67,2.71-1.17c0.84-0.51,1.6-1.12,2.3-1.83c0.69-0.71,1.29-1.5,1.78-2.36
		c0.49-0.86,0.87-1.79,1.15-2.79C21.53,17.68,21.66,16.65,21.66,15.57z M16.01,18.03c-0.34,0.77-0.79,1.44-1.36,2.01
		c-0.57,0.57-1.23,1.02-1.98,1.35c-0.75,0.33-1.54,0.5-2.36,0.5H6.14v-4.98v-3.39V9.24h4.18c0.83,0,1.61,0.17,2.36,0.5
		c0.75,0.33,1.41,0.79,1.98,1.36c0.57,0.58,1.02,1.25,1.36,2.02c0.33,0.77,0.5,1.59,0.5,2.46C16.52,16.44,16.35,17.26,16.01,18.03z"
		/>
	<path class="st0" d="M57.95,3.3c-6.53,0-11.82,5.49-11.82,12.27s5.29,12.27,11.82,12.27c6.53,0,11.82-5.49,11.82-12.27
		S64.48,3.3,57.95,3.3z M57.95,23.01c-3.96,0-7.18-3.33-7.18-7.45s3.21-7.45,7.18-7.45c3.96,0,7.17,3.33,7.17,7.45
		S61.92,23.01,57.95,23.01z"/>
	<polygon class="st0" points="87.07,12.99 77.05,12.99 77.05,3.85 71.92,3.85 71.92,5.4 71.92,6.61 71.92,27.24 77.05,27.24 
		77.05,17.98 87.07,17.98 87.07,27.24 92.22,27.24 92.22,3.85 87.07,3.85 	"/>
	<rect x="119.74" y="3.85" class="st0" width="5.16" height="23.39"/>
	<path class="st0" d="M142.93,17.3c-0.28-0.74-0.68-1.41-1.19-2c-0.51-0.59-1.12-1.11-1.84-1.55c-0.72-0.44-1.51-0.81-2.39-1.12
		c-0.68-0.24-1.28-0.43-1.78-0.58c-0.51-0.15-0.94-0.29-1.27-0.44c-0.34-0.15-0.59-0.32-0.77-0.51c-0.17-0.2-0.25-0.47-0.25-0.82
		c0-0.23,0.06-0.43,0.18-0.59c0.12-0.17,0.28-0.3,0.48-0.41c0.2-0.1,0.43-0.18,0.68-0.23c0.26-0.05,0.52-0.08,0.8-0.08
		c0.26,0,0.5,0.05,0.73,0.13c0.22,0.09,0.44,0.18,0.66,0.29c0.22,0.1,0.46,0.2,0.71,0.29c0.26,0.09,0.55,0.13,0.88,0.13
		c0.42,0,0.8-0.06,1.14-0.18c0.34-0.12,0.67-0.32,0.98-0.6l1.59-1.39c-0.4-0.5-0.84-0.99-1.34-1.47c-0.5-0.48-1.02-0.9-1.59-1.28
		c-0.56-0.38-1.17-0.68-1.8-0.91c-0.64-0.24-1.29-0.35-1.96-0.35c-0.92,0-1.82,0.15-2.7,0.45c-0.87,0.3-1.65,0.73-2.33,1.3
		c-0.68,0.57-1.23,1.26-1.65,2.08c-0.41,0.82-0.62,1.76-0.62,2.81c0,1.12,0.19,2.06,0.56,2.82c0.37,0.75,0.86,1.39,1.46,1.93
		c0.6,0.53,1.27,0.97,2.03,1.33c0.75,0.36,1.52,0.69,2.29,0.99c0.47,0.2,0.92,0.37,1.35,0.51c0.43,0.14,0.81,0.3,1.14,0.47
		c0.33,0.17,0.59,0.37,0.78,0.6c0.2,0.23,0.29,0.52,0.29,0.88c0,0.38-0.1,0.72-0.31,1.01c-0.21,0.29-0.48,0.53-0.79,0.72
		c-0.32,0.2-0.67,0.35-1.04,0.45c-0.37,0.1-0.72,0.16-1.03,0.16c-0.47,0-0.89-0.1-1.26-0.29c-0.36-0.2-0.72-0.41-1.07-0.64
		c-0.35-0.23-0.7-0.44-1.06-0.64c-0.36-0.19-0.77-0.29-1.22-0.29c-0.31,0-0.61,0.05-0.91,0.14c-0.3,0.09-0.58,0.21-0.84,0.37
		l-1.64,0.98c0.29,0.83,0.7,1.59,1.23,2.29c0.52,0.7,1.13,1.31,1.83,1.81c0.7,0.51,1.46,0.9,2.3,1.18c0.84,0.29,1.71,0.42,2.64,0.42
		c1.08,0,2.12-0.19,3.13-0.56c1-0.37,1.89-0.9,2.67-1.58c0.77-0.67,1.39-1.48,1.85-2.42c0.46-0.94,0.69-1.98,0.69-3.11
		C143.35,18.86,143.21,18.04,142.93,17.3z"/>
	<path class="st0" d="M184.64,3.85v14.77c0-0.03-0.01-0.11-0.05-0.25c-0.03-0.13-0.08-0.29-0.14-0.46
		c-0.07-0.18-0.14-0.37-0.22-0.58c-0.08-0.21-0.18-0.4-0.3-0.57l-7.88-11.98c-0.21-0.32-0.51-0.55-0.9-0.7
		c-0.39-0.15-0.84-0.23-1.34-0.23h-5.07v23.39h5.13V11.06l10.78,16.18h5.12V3.85H184.64z"/>
	<path class="st0" d="M103.76,3.85l-9.85,23.39h3.33c0.33,0,0.65-0.05,0.97-0.15c0.33-0.1,0.63-0.25,0.92-0.44
		c0.28-0.19,0.54-0.41,0.76-0.66c0.22-0.25,0.4-0.53,0.52-0.82l1.04-2.6l0.29-0.73h8.47l0.29,0.73l1.05,2.6
		c0.14,0.32,0.32,0.62,0.54,0.87c0.22,0.26,0.47,0.48,0.74,0.65c0.27,0.18,0.57,0.32,0.89,0.41c0.32,0.09,0.65,0.14,1,0.14h3.32
		L108.2,3.85H103.76z M108.73,18.09h-5.49l0.14-0.37l1.19-2.99l1.41-3.56l0.95,2.4l1.65,4.15L108.73,18.09z"/>
	<polygon class="st0" points="38.15,10.19 42.65,7.52 36.73,7.52 33.93,2.26 31.11,7.52 25.17,7.52 29.71,10.15 25.45,18.1 
		33.93,13.2 42.37,18.1 	"/>
	<path class="st0" d="M152.84,3.85l-9.85,23.39h3.33c0.33,0,0.65-0.05,0.97-0.15c0.33-0.1,0.63-0.25,0.92-0.44
		c0.28-0.19,0.54-0.41,0.76-0.66c0.22-0.25,0.4-0.53,0.52-0.82l1.04-2.6l0.29-0.73h8.47l0.29,0.73l1.05,2.6
		c0.14,0.32,0.32,0.62,0.54,0.87c0.22,0.26,0.47,0.48,0.74,0.65c0.27,0.18,0.57,0.32,0.89,0.41c0.32,0.09,0.65,0.14,1,0.14h3.32
		l-9.85-23.39H152.84z M157.81,18.09h-5.49l0.14-0.37l1.19-2.99l1.41-3.56l0.95,2.4l1.65,4.15L157.81,18.09z"/>
</g>
</svg>
