<?xml version="1.0" encoding="utf-8"?>
<!-- Generator: Adobe Illustrator 24.0.0, SVG Export Plug-In . SVG Version: 6.00 Build 0)  -->
<svg version="1.1" id="Layer_1" xmlns="http://www.w3.org/2000/svg" xmlns:xlink="http://www.w3.org/1999/xlink" x="0px" y="0px"
	 viewBox="0 0 1372.4 711.4" style="enable-background:new 0 0 1372.4 711.4;" xml:space="preserve">
<style type="text/css">
	.st0{clip-path:url(#SVGID_2_);}
	.st1{fill:url(#SVGID_3_);}
	.st2{clip-path:url(#SVGID_5_);}
	.st3{fill:url(#SVGID_6_);}
	.st4{clip-path:url(#SVGID_8_);}
	.st5{fill:url(#SVGID_9_);}
	.st6{clip-path:url(#SVGID_11_);}
	.st7{fill:url(#SVGID_12_);}
	.st8{clip-path:url(#SVGID_14_);}
	.st9{fill:url(#SVGID_15_);}
	.st10{clip-path:url(#SVGID_17_);}
	.st11{fill:url(#SVGID_18_);}
	.st12{clip-path:url(#SVGID_20_);}
	.st13{fill:url(#SVGID_21_);}
	.st14{clip-path:url(#SVGID_23_);}
	.st15{fill:url(#SVGID_24_);}
	.st16{clip-path:url(#SVGID_26_);}
	.st17{fill:url(#SVGID_27_);}
	.st18{clip-path:url(#SVGID_29_);}
	.st19{fill:url(#SVGID_30_);}
	.st20{clip-path:url(#SVGID_32_);}
	.st21{fill:url(#SVGID_33_);}
	.st22{clip-path:url(#SVGID_35_);}
	.st23{fill:url(#SVGID_36_);}
	.st24{clip-path:url(#SVGID_38_);}
	.st25{fill:url(#SVGID_39_);}
	.st26{clip-path:url(#SVGID_41_);}
	.st27{fill:url(#SVGID_42_);}
	.st28{fill-rule:evenodd;clip-rule:evenodd;fill:#FFC801;}
	.st29{clip-path:url(#SVGID_44_);}
	.st30{fill:url(#SVGID_45_);}
	.st31{clip-path:url(#SVGID_47_);}
	.st32{fill:url(#SVGID_48_);}
	.st33{clip-path:url(#SVGID_50_);}
	.st34{fill:url(#SVGID_51_);}
</style>
<title>logo</title>
<g>
	<g>
		<g>
			<defs>
				<polygon id="SVGID_1_" points="282.8,410.1 282.8,337.8 258.3,337.8 258.3,318.3 331.4,318.3 331.4,337.8 306.9,337.8 
					306.9,410.1 				"/>
			</defs>
			<clipPath id="SVGID_2_">
				<use xlink:href="#SVGID_1_"  style="overflow:visible;"/>
			</clipPath>
			<g class="st0">
				
					<linearGradient id="SVGID_3_" gradientUnits="userSpaceOnUse" x1="-2043.646" y1="-1207.4858" x2="-2043.0476" y2="-1207.4858" gradientTransform="matrix(0 -254.63 -254.63 0 -307167.2813 -519956.2813)">
					<stop  offset="0" style="stop-color:#1097F0"/>
					<stop  offset="1" style="stop-color:#004C8C"/>
				</linearGradient>
				<rect x="258.3" y="318.3" class="st1" width="73.1" height="91.9"/>
			</g>
		</g>
	</g>
	<g>
		<g>
			<defs>
				<polygon id="SVGID_4_" points="399.8,410.1 399.8,373.4 368.2,373.4 368.2,410.1 344.1,410.1 344.1,318.3 368.2,318.3 
					368.2,354.1 399.8,354.1 399.8,318.3 423.9,318.3 423.9,410.1 				"/>
			</defs>
			<clipPath id="SVGID_5_">
				<use xlink:href="#SVGID_4_"  style="overflow:visible;"/>
			</clipPath>
			<g class="st2">
				
					<linearGradient id="SVGID_6_" gradientUnits="userSpaceOnUse" x1="-2043.646" y1="-1207.2612" x2="-2043.0476" y2="-1207.2612" gradientTransform="matrix(0 -254.63 -254.63 0 -307020.9375 -519956.2813)">
					<stop  offset="0" style="stop-color:#1097F0"/>
					<stop  offset="1" style="stop-color:#004C8C"/>
				</linearGradient>
				<rect x="344.1" y="318.3" class="st3" width="79.8" height="91.9"/>
			</g>
		</g>
	</g>
	<g>
		<g>
			<defs>
				<path id="SVGID_7_" d="M507.3,410.1h-62.9v-91.8h62.9v18.9h-39v18.6h36.5v17.4h-36.5v18.5h39V410.1z M466.1,293.4h18.1
					l17.4,16.4h-17.4l-8.2-7.5h-1.3l-7.5,7.5h-18L466.1,293.4z M501.1,280.9h16.1l-20.1,17.8l-7.5-6.4L501.1,280.9z"/>
			</defs>
			<clipPath id="SVGID_8_">
				<use xlink:href="#SVGID_7_"  style="overflow:visible;"/>
			</clipPath>
			<g class="st4">
				
					<linearGradient id="SVGID_9_" gradientUnits="userSpaceOnUse" x1="-2043.6602" y1="-1207.0154" x2="-2043.0618" y2="-1207.0154" gradientTransform="matrix(0 -254.63 -254.63 0 -306861.4688 -519955.7188)">
					<stop  offset="0" style="stop-color:#1097F0"/>
					<stop  offset="1" style="stop-color:#004C8C"/>
				</linearGradient>
				<rect x="444.5" y="281.1" class="st5" width="72.7" height="129"/>
			</g>
		</g>
	</g>
	<g>
		<g>
			<defs>
				<path id="SVGID_10_" d="M521.6,358.5v10.8c0,23.3,11.9,42.5,41.2,42.5s38.9-18.4,38.9-34.9v-17.7h-37.4v16.7h15v3
					c-0.3,7.7-6.8,13.7-14.6,13.4c-0.4,0-0.7,0-1.1-0.1c-13.3,0-17.4-10.4-17.4-23v-10.4c0-15,6.5-22.5,17-22.5
					c7.6-0.4,14.2,5.2,15,12.8h23.4c0-16-12.5-32.4-38.5-32.4C537.1,316.7,521.6,333.8,521.6,358.5"/>
			</defs>
			<clipPath id="SVGID_11_">
				<use xlink:href="#SVGID_10_"  style="overflow:visible;"/>
			</clipPath>
			<g class="st6">
				
					<linearGradient id="SVGID_12_" gradientUnits="userSpaceOnUse" x1="-2043.6443" y1="-1206.812" x2="-2043.0459" y2="-1206.812" gradientTransform="matrix(0 -254.63 -254.63 0 -306728.5938 -519956.3438)">
					<stop  offset="0" style="stop-color:#1097F0"/>
					<stop  offset="1" style="stop-color:#004C8C"/>
				</linearGradient>
				<rect x="521.9" y="316.6" class="st7" width="80.1" height="95.1"/>
			</g>
		</g>
	</g>
	<g>
		<g>
			<defs>
				<rect id="SVGID_13_" x="618.8" y="318.3" width="24.1" height="91.9"/>
			</defs>
			<clipPath id="SVGID_14_">
				<use xlink:href="#SVGID_13_"  style="overflow:visible;"/>
			</clipPath>
			<g class="st8">
				
					<linearGradient id="SVGID_15_" gradientUnits="userSpaceOnUse" x1="-2043.646" y1="-1206.6395" x2="-2043.0476" y2="-1206.6395" gradientTransform="matrix(0 -254.63 -254.63 0 -306615.7813 -519956.2813)">
					<stop  offset="0" style="stop-color:#1097F0"/>
					<stop  offset="1" style="stop-color:#004C8C"/>
				</linearGradient>
				<rect x="618.8" y="318.3" class="st9" width="24.1" height="91.9"/>
			</g>
		</g>
	</g>
	<g>
		<g>
			<defs>
				<path id="SVGID_16_" d="M684.3,369.8v-10.7c0-15,6.8-23,17.1-23s17.2,7.9,17.2,23v10.7c0,15-6.9,22.5-17.2,22.5
					S684.3,384.7,684.3,369.8 M738.5,302.4v9.9c0,4.6-1,8.3-8.9,8.3s-16.2-4-28.1-4c-26.6,0-41.8,16.6-41.8,42.7v10.1
					c0,25.8,15,42.3,41.7,42.3s41.8-16.5,41.8-42.3v-10.1c0.1-8.3-1.8-16.5-5.7-23.8l0,0c10,0.3,18.4-7.6,18.7-17.7
					c0-0.7,0-1.5-0.1-2.2v-13L738.5,302.4z M706.6,293.1L687.5,309h20.7l22-15.9H706.6z"/>
			</defs>
			<clipPath id="SVGID_17_">
				<use xlink:href="#SVGID_16_"  style="overflow:visible;"/>
			</clipPath>
			<g class="st10">
				
					<linearGradient id="SVGID_18_" gradientUnits="userSpaceOnUse" x1="-2043.6721" y1="-1206.4441" x2="-2043.0737" y2="-1206.4441" gradientTransform="matrix(0 -254.63 -254.63 0 -306488.875 -519955.2813)">
					<stop  offset="0" style="stop-color:#1097F0"/>
					<stop  offset="1" style="stop-color:#004C8C"/>
				</linearGradient>
				<rect x="659.7" y="293.4" class="st11" width="96.6" height="118.4"/>
			</g>
		</g>
	</g>
	<g>
		<g>
			<defs>
				<rect id="SVGID_19_" x="763" y="318.3" width="24.1" height="91.9"/>
			</defs>
			<clipPath id="SVGID_20_">
				<use xlink:href="#SVGID_19_"  style="overflow:visible;"/>
			</clipPath>
			<g class="st12">
				
					<linearGradient id="SVGID_21_" gradientUnits="userSpaceOnUse" x1="-2043.646" y1="-1206.275" x2="-2043.0476" y2="-1206.275" gradientTransform="matrix(0 -254.63 -254.63 0 -306378.7813 -519956.2813)">
					<stop  offset="0" style="stop-color:#1097F0"/>
					<stop  offset="1" style="stop-color:#004C8C"/>
				</linearGradient>
				<rect x="763" y="318.3" class="st13" width="24.1" height="91.9"/>
			</g>
		</g>
	</g>
	<g>
		<g>
			<defs>
				<path id="SVGID_22_" d="M804.8,345.7c0,16.3,10.9,23.7,24.9,26.5l12.4,2.5c8.8,1.8,13.4,4.1,13.4,9.5s-4.3,9.5-13.9,9.5
					c-9.6,0-15.5-5.3-15.9-10.8h-22.5c0,13.5,9.2,28.9,37.9,28.9c24.9,0,38.4-12.1,38.4-29.9s-12.3-24.5-25.4-26.8l-12.7-2.5
					c-8.2-1.5-12.9-4.3-12.9-8.8s4.3-9.3,12.6-9.3c9.4,0,13.8,5.4,14.1,10.6h22.5c0-15-12.8-28.4-36.1-28.4
					C820.3,316.6,804.9,327,804.8,345.7"/>
			</defs>
			<clipPath id="SVGID_23_">
				<use xlink:href="#SVGID_22_"  style="overflow:visible;"/>
			</clipPath>
			<g class="st14">
				
					<linearGradient id="SVGID_24_" gradientUnits="userSpaceOnUse" x1="-2043.6404" y1="-1206.1084" x2="-2043.042" y2="-1206.1084" gradientTransform="matrix(0 -254.63 -254.63 0 -306270.25 -519956.5313)">
					<stop  offset="0" style="stop-color:#1097F0"/>
					<stop  offset="1" style="stop-color:#004C8C"/>
				</linearGradient>
				<rect x="803" y="316.6" class="st15" width="76.3" height="95.2"/>
			</g>
		</g>
	</g>
	<g>
		<g>
			<defs>
				<polygon id="SVGID_25_" points="887.7,318.3 887.7,337.8 912.2,337.8 912.2,410.1 936.3,410.1 936.3,337.8 960.8,337.8 
					960.8,318.3 				"/>
			</defs>
			<clipPath id="SVGID_26_">
				<use xlink:href="#SVGID_25_"  style="overflow:visible;"/>
			</clipPath>
			<g class="st16">
				
					<linearGradient id="SVGID_27_" gradientUnits="userSpaceOnUse" x1="-2043.646" y1="-1205.8994" x2="-2043.0476" y2="-1205.8994" gradientTransform="matrix(0 -254.63 -254.63 0 -306133.9375 -519956.2813)">
					<stop  offset="0" style="stop-color:#1097F0"/>
					<stop  offset="1" style="stop-color:#004C8C"/>
				</linearGradient>
				<rect x="887.7" y="318.3" class="st17" width="73.1" height="91.9"/>
			</g>
		</g>
	</g>
	<g>
		<g>
			<defs>
				<rect id="SVGID_28_" x="973.5" y="318.3" width="24.1" height="91.9"/>
			</defs>
			<clipPath id="SVGID_29_">
				<use xlink:href="#SVGID_28_"  style="overflow:visible;"/>
			</clipPath>
			<g class="st18">
				
					<linearGradient id="SVGID_30_" gradientUnits="userSpaceOnUse" x1="-2043.646" y1="-1205.7449" x2="-2043.0476" y2="-1205.7449" gradientTransform="matrix(0 -254.63 -254.63 0 -306033.2813 -519956.2813)">
					<stop  offset="0" style="stop-color:#1097F0"/>
					<stop  offset="1" style="stop-color:#004C8C"/>
				</linearGradient>
				<rect x="973.5" y="318.3" class="st19" width="24.1" height="91.9"/>
			</g>
		</g>
	</g>
	<g>
		<g>
			<defs>
				<path id="SVGID_31_" d="M1014.4,359.4v9.7c0,26.3,15,42.7,40.6,42.7c23.3,0,38.2-14.1,38.2-33v-3.1h-23
					c0.7,8.2-5.3,15.5-13.6,16.3c-0.5,0-0.9,0.1-1.4,0.1c-10.1,0-16.2-7.5-16.2-22.5v-9.7c0-15,6.2-23.1,16.2-23.1
					c8.3-0.1,15,6.6,15.1,14.9c0,0.6,0,1.3-0.1,1.9h23v-3c0-19.5-15-33.5-38.2-33.5c-25.9,0-40.6,16.5-40.6,42.8"/>
			</defs>
			<clipPath id="SVGID_32_">
				<use xlink:href="#SVGID_31_"  style="overflow:visible;"/>
			</clipPath>
			<g class="st20">
				
					<linearGradient id="SVGID_33_" gradientUnits="userSpaceOnUse" x1="-2043.6443" y1="-1205.5721" x2="-2043.0459" y2="-1205.5721" gradientTransform="matrix(0 -254.63 -254.63 0 -305921.0938 -519956.3438)">
					<stop  offset="0" style="stop-color:#1097F0"/>
					<stop  offset="1" style="stop-color:#004C8C"/>
				</linearGradient>
				<rect x="1014.4" y="316.6" class="st21" width="78.7" height="95.1"/>
			</g>
		</g>
	</g>
	<g>
		<g>
			<defs>
				<polygon id="SVGID_34_" points="1164.9,318.3 1134.8,356.4 1133.8,356.4 1133.8,318.3 1109.7,318.3 1109.7,410.1 1133.8,410.1 
					1133.8,383.2 1141.4,374 1163.3,410.1 1191.6,410.1 1159,358.2 1190.4,318.3 				"/>
			</defs>
			<clipPath id="SVGID_35_">
				<use xlink:href="#SVGID_34_"  style="overflow:visible;"/>
			</clipPath>
			<g class="st22">
				
					<linearGradient id="SVGID_36_" gradientUnits="userSpaceOnUse" x1="-2043.646" y1="-1205.329" x2="-2043.0476" y2="-1205.329" gradientTransform="matrix(0 -254.63 -254.63 0 -305762.2813 -519956.2813)">
					<stop  offset="0" style="stop-color:#1097F0"/>
					<stop  offset="1" style="stop-color:#004C8C"/>
				</linearGradient>
				<rect x="1109.7" y="318.3" class="st23" width="81.9" height="91.9"/>
			</g>
		</g>
	</g>
	<g>
		<g>
			<defs>
				<polygon id="SVGID_37_" points="1202.3,318.3 1202.3,410.1 1265.1,410.1 1265.1,391.3 1226.1,391.3 1226.1,372.7 1262.7,372.7 
					1262.7,355.3 1226.1,355.3 1226.1,337.1 1265.1,337.1 1265.1,318.3 				"/>
			</defs>
			<clipPath id="SVGID_38_">
				<use xlink:href="#SVGID_37_"  style="overflow:visible;"/>
			</clipPath>
			<g class="st24">
				
					<linearGradient id="SVGID_39_" gradientUnits="userSpaceOnUse" x1="-2043.646" y1="-1205.1193" x2="-2043.0476" y2="-1205.1193" gradientTransform="matrix(0 -254.63 -254.63 0 -305625.7813 -519956.2813)">
					<stop  offset="0" style="stop-color:#1097F0"/>
					<stop  offset="1" style="stop-color:#004C8C"/>
				</linearGradient>
				<rect x="1202.3" y="318.3" class="st25" width="62.9" height="91.9"/>
			</g>
		</g>
	</g>
	<g>
		<g>
			<defs>
				<path id="SVGID_40_" d="M1307.1,336h12.6c6.8-0.6,12.8,4.4,13.4,11.2c0,0.5,0.1,1.1,0,1.6c0.3,6.6-4.8,12.2-11.4,12.5
					c-0.7,0-1.4,0-2.1-0.1h-12.5V336z M1283.4,318.3v91.8h23.7v-32h10.9l15,32.1h26.9l-18.3-35.3c10.1-4.7,16.5-14.8,16.4-26
					c0-17.8-11.6-30.5-34.7-30.5L1283.4,318.3z"/>
			</defs>
			<clipPath id="SVGID_41_">
				<use xlink:href="#SVGID_40_"  style="overflow:visible;"/>
			</clipPath>
			<g class="st26">
				
					<linearGradient id="SVGID_42_" gradientUnits="userSpaceOnUse" x1="-2043.646" y1="-1204.8976" x2="-2043.0476" y2="-1204.8976" gradientTransform="matrix(0 -254.63 -254.63 0 -305481.4375 -519956.2813)">
					<stop  offset="0" style="stop-color:#1097F0"/>
					<stop  offset="1" style="stop-color:#004C8C"/>
				</linearGradient>
				<rect x="1283.4" y="318.3" class="st27" width="76.5" height="91.9"/>
			</g>
		</g>
	</g>
	<path d="M276.7,512.9V458h-18.8v-8.2h46.7v8.2h-18.5v54.9H276.7z"/>
	<path d="M330.5,513.2c-7.9,0.8-15-5-15.8-12.9c-0.1-0.7-0.1-1.4-0.1-2c0-8.6,5.9-14.3,17.1-14.3h12.5v-5.4c0-5.7-3.4-8.2-9.4-8.2
		s-9,2.9-9.5,7.5h-8.9c0.4-8.5,5.9-15,18.8-15c11.1,0,18.4,4.6,18.4,15.9v34h-8.9v-6.4l0,0C341.6,511.2,336.1,513.8,330.5,513.2z
		 M344.3,496v-5.1H333c-6.2,0-9,3-9,7.5c0,5.4,4.4,7.5,9.1,7.5c5.6,0.5,10.6-3.7,11-9.4C344.2,496.3,344.3,496.1,344.3,496z
		 M335.4,519.7c2.9-0.1,5.2,2.2,5.3,5c0,0.1,0,0.2,0,0.3c0,2.9-2.3,5.2-5.2,5.2c-2.9,0-5.2-2.3-5.2-5.2c-0.1-2.9,2.2-5.2,5-5.3
		C335.2,519.7,335.3,519.7,335.4,519.7z"/>
	<path d="M411.7,486.2v3.7c0,13.9-6.9,23.4-21.4,23.4s-21.4-9.4-21.4-23.4v-3.7c0-13.2,7-23.3,21.4-23.3
		C404.7,463,411.7,472.5,411.7,486.2z M378.2,486.8v2.7c0,8.5,2.8,16.1,12,16.1s12-7.5,12-16.1v-2.7c0-8.5-2.8-16.2-12-16.2
		C381.1,470.6,378.2,478.3,378.2,486.8z"/>
	<path d="M451.1,463.8h9.2v6.6l0,0c2.8-5,8.3-7.9,14-7.5c8.9-0.6,16.7,6.1,17.4,15c0.1,0.7,0.1,1.4,0,2.2v32.8h-9.1v-29.1
		c0-8.4-4-12.2-11-12.2s-11.2,4.3-11.2,12.5v28.8h-9.3V463.8z"/>
	<path d="M507.6,490.4v-4.3c0-13.7,7.5-23.2,20.7-23.2s20.5,9.5,20.5,23.1v4.4h-31.9v1.4c0,7.5,3.7,13.9,11.9,13.9
		c4.6,0.6,9-2.3,10.1-6.9h9.3c-1.4,9.4-9.9,16-19.3,15C514.8,513.3,507.6,504,507.6,490.4z M525,442.4h6.1l9.4,13.8H533l-5-8.6l0,0
		l-5.4,8.5h-7.5L525,442.4z M540,483.5L540,483.5c1.2-6.2-2.8-12.2-9-13.5c-6.2-1.2-12.2,2.8-13.5,9c-0.3,1.5-0.3,3,0,4.5l0,0H540z"
		/>
	<path d="M564.4,463.8h9.6v6.6l0,0c2.8-5,8.3-7.9,14-7.5c8.9-0.6,16.6,6.1,17.3,15c0.1,0.7,0.1,1.5,0,2.2v32.8H596v-29.1
		c0-8.4-4-12.2-10.9-12.2s-11,3.9-11,12.1v29.2h-9.6L564.4,463.8L564.4,463.8z"/>
	<path d="M663.1,463c11.5,0,17.7,6.3,17.7,15h-8.5c-0.4-4.6-4.4-7.9-9-7.5c-0.2,0-0.3,0-0.5,0.1c-5.5,0-9.3,2.6-9.3,7
		c0,5.6,6.8,6.3,12.2,7.5c9.1,1.6,16.4,4.3,16.4,13.7s-7.5,15.4-19.8,15.4s-18.7-5.4-18.7-14.1h9.1c0.6,4.1,4,7,10,7
		c7.5,0,10.3-3.2,10.3-7.5c0-5.2-5.5-6.2-12.2-7.5c-8.9-1.9-16.2-4.2-16.2-13.7C644.5,468.8,653.4,463,663.1,463z"/>
	<path d="M713.8,513.2c-7.9,1.2-15.3-4.3-16.5-12.2c-0.2-1.2-0.2-2.5-0.1-3.7v-33.6h9.4V495c-0.7,5,2.8,9.7,7.9,10.4
		c0.8,0.1,1.5,0.1,2.3,0c6.3,0.2,11.6-4.6,11.8-10.9c0-0.1,0-0.2,0-0.2v-30.5h8.5c4.6,0,5.7-2.8,5.7-6.8v-6.1h7.9v6.6
		c0,7.5-3.5,12.9-11.7,12.9h-1V513h-9.3v-8.1h-0.5C725.7,510.4,719.9,513.8,713.8,513.2z M717.8,519.7c2.9-0.1,5.3,2.2,5.4,5.1
		c0,0.1,0,0.2,0,0.2c0,2.9-2.3,5.2-5.2,5.2c-0.1,0-0.2,0-0.2,0c-2.8,0-5.1-2.2-5.2-5c0-0.1,0-0.1,0-0.2c-0.1-2.9,2.2-5.2,5-5.3
		C717.7,519.7,717.8,519.7,717.8,519.7z"/>
	<path d="M793.6,512.9h-9.3v-66.5h9.3v39.2h0.4l18.8-21.5h10.6l-18.7,21.1l20,27.6h-11.2l-15.6-22.5l-4.3,4.3V512.9z"/>
	<path d="M837.3,446h9.4v24.3l0,0c2.6-5,7.9-7.9,13.5-7.5c9.6-0.2,17.6,7.4,17.9,17c0,0.7,0,1.4-0.1,2v31h-9.4v-28.5
		c0-7.5-3.9-12.8-10.9-12.8s-11.5,4.6-11.5,12.8v28.5h-9.4L837.3,446z"/>
	<path d="M909.6,513.2c-8,0.8-15.1-5-15.9-13c-0.1-0.6-0.1-1.3-0.1-2c0-8.6,6-14.3,17.1-14.3h12.6v-5.4c0-5.7-3.4-8.2-9.4-8.2
		s-9.1,2.9-9.5,7.5h-9c0.4-8.5,6-15,18.9-15c11,0,18.4,4.6,18.4,15.9v34h-8.9v-6.4l0,0C920.6,511.2,915.2,513.8,909.6,513.2z
		 M923.3,496v-5.1h-11.2c-6.3,0-9.1,3-9.1,7.5c0,5.4,4.5,7.5,9.2,7.5c5.6,0.5,10.6-3.7,11-9.4C923.3,496.3,923.3,496.1,923.3,496z
		 M909.3,456.3l8.8-12.9h9.7l-10.9,12.9H909.3z"/>
	<path d="M948.2,485.4c-1.2-11.1,6.9-21.1,18-22.3c0.9-0.1,1.8-0.1,2.7-0.1c9.3-1.2,17.7,5.4,18.9,14.6c0,0.3,0.1,0.7,0.1,1h-9.1
		c-0.8-4.8-5.1-8.2-10-7.9c-7.9,0-11.5,6.7-11.5,15v4.8c0,8.4,4.2,15,11.5,15c4.7,0.6,9.2-2.4,10.3-7h8.9c-1.2,9.5-9.9,16.2-19.3,15
		c0,0,0,0-0.1,0c-13.3,0-20.7-9.3-20.7-22.5L948.2,485.4z"/>
	<path d="M1036,505.4L1036,505.4v7.5h-9.1v-66.5h9.4V471l0,0c2.8-5.1,8.4-8.1,14.1-7.5c12.1,0,18.9,8.8,18.9,22.5v4.5
		c0,14.3-7.5,22.5-19.1,22.5C1044.4,513.5,1038.8,510.6,1036,505.4z M1059.8,490.4v-4.2c0-9.9-4.5-15.3-11.8-15.3s-12,6.3-12,15v4.6
		c0,7.5,3.7,15,12,15C1055.1,505.4,1059.8,500.2,1059.8,490.4L1059.8,490.4z"/>
	<path d="M1090.9,446.5c3,0,5.4,2.4,5.4,5.4s-2.4,5.4-5.4,5.4c-3,0.2-5.6-2.1-5.8-5.2c0-0.1,0-0.2,0-0.3c0-3,2.5-5.4,5.5-5.3
		C1090.7,446.5,1090.8,446.5,1090.9,446.5z M1086.3,463.8h9.3v49.1h-9.3V463.8z"/>
	<path d="M1112.9,490.4v-4.3c0-13.7,7.5-23.2,20.6-23.2s20.5,9.5,20.5,23.1v4.4h-32.1v1.4c0,7.5,3.7,13.9,11.8,13.9
		c4.6,0.7,9-2.3,10.1-6.9h9.3c-1.4,9.4-9.9,16-19.3,15C1119.8,513.3,1112.9,504,1112.9,490.4z M1130.2,442.4h6.1l9.4,13.8h-7.5
		l-4.9-8.6l0,0l-5.4,8.5h-7.5L1130.2,442.4z M1144.8,483.5L1144.8,483.5c1-6.2-3.2-12.1-9.4-13.1c-6.2-1-12.1,3.2-13.1,9.4
		c-0.2,1.2-0.2,2.5,0,3.7l0,0H1144.8z M1133.4,519.7c2.9-0.1,5.2,2.2,5.3,5c0,0.1,0,0.2,0,0.3c0,2.9-2.4,5.2-5.3,5.2
		s-5.2-2.3-5.2-5.2c-0.1-2.8,2.1-5.2,4.9-5.3H1133.4z"/>
	<path d="M1172,451.7h9.2v12.2h9.6v7.5h-9.6v26.9c0,5.5,1.9,7,7.5,7h2.2v7.5c-1.5,0.1-3,0.1-4.6,0c-11.7,0-15-4.3-15-14.1v-27.3
		h-6.1v-7.5h6.7v-12.2H1172z"/>
	<path class="st28" d="M209.1,285C37,427.8,140.1,715.3,383.6,666.7c52.4-14,99.6-42.9,135.8-83.2c11.8-13.3-1.2-30.8-16.3-15.3
		c-29.3,30.6-67.6,51-109.4,58.2c-50.8,8.1-102-12.4-133.1-53.4c-10.6-13.5-33.1-1.6-20.7,16.2c3.6,5.4,2.1,12.6-3.3,16.2
		c-3.7,2.5-8.6,2.6-12.4,0.3C197,593,170,554.5,157.7,528c-38.4-81.3-18.6-176.9,51.4-243.2"/>
	<g>
		<g>
			<defs>
				<path id="SVGID_43_" d="M128.6,587.7c29.9,41.6,120.1,113.1,255,79C168.4,704.1,41,432.5,209.1,285
					C91.6,365.2,65.7,502,128.6,588"/>
			</defs>
			<clipPath id="SVGID_44_">
				<use xlink:href="#SVGID_43_"  style="overflow:visible;"/>
			</clipPath>
			<g class="st29">
				
					<linearGradient id="SVGID_45_" gradientUnits="userSpaceOnUse" x1="-2037.5232" y1="-1200.5991" x2="-2036.9248" y2="-1200.5991" gradientTransform="matrix(-670.2811 -550.7711 -550.7711 670.2811 -2026518 -316779.2813)">
					<stop  offset="0" style="stop-color:#1097F0"/>
					<stop  offset="1" style="stop-color:#004C8C"/>
				</linearGradient>
				<polygon class="st30" points="-164.9,535.6 179.1,117 589.4,454.2 245.5,872.7 				"/>
			</g>
		</g>
	</g>
	<g>
		<g>
			<defs>
				<path id="SVGID_46_" d="M73.9,503.6c3.3,13.2-13.2,19.9-18.6,5.4c-1.3-6-7.3-9.8-13.3-8.5s-9.8,7.3-8.5,13.3
					c0.3,1.3,0.8,2.6,1.6,3.7c50.5,134.2,212.7,187.1,348.8,149.7C153.7,717.9,31.3,435.9,209.4,285.5c5.6-4.3,6.6-12.3,2.2-17.9
					c-4.3-5.6-12.3-6.6-17.9-2.2l0,0c-11.7,8.6-22.5-4.8-12.6-20.4c28.7-43.4,86.9-72.7,137.9-76.9C153.6,170.3,30.9,337,74.2,504.1
					"/>
			</defs>
			<clipPath id="SVGID_47_">
				<use xlink:href="#SVGID_46_"  style="overflow:visible;"/>
			</clipPath>
			<g class="st31">
				
					<linearGradient id="SVGID_48_" gradientUnits="userSpaceOnUse" x1="-2037.4255" y1="-1203.1504" x2="-2036.7522" y2="-1203.1504" gradientTransform="matrix(-60.7757 -852.0352 -852.0352 60.7757 -1148726.25 -1662114)">
					<stop  offset="0" style="stop-color:#1097F0"/>
					<stop  offset="1" style="stop-color:#004C8C"/>
				</linearGradient>
				<polygon class="st32" points="-10.1,170.3 381.8,142.4 422.6,715 30.8,742.9 				"/>
			</g>
		</g>
	</g>
	<path class="st28" d="M73.9,503.6C32.5,341.3,154.2,180,318.7,167.5c69.7-4.4,138.8,14.6,196.4,54.1
		C282.1-3.2-17.2,193.8,73.9,503.6"/>
	<g>
		<g>
			<defs>
				<path id="SVGID_49_" d="M376.8,38.6c-222.3,25.8-373,239.5-302.9,465C1,249.1,292.5,52.2,515.5,221.6
					c21.8,16.7,43.6-12.2,28-29.9c-2.9-3-6.1-5.7-9.4-8.1c-7.9-6.6-4-20.7,10.4-19.4c12.6,1,24.9,2.6,37.4,4.6
					c37.4,6.3,51.1-36.7,15-53.8c-61.9-28.7-132.5-39.9-212-33.2c-10.6,1-11.2-11.4-1.8-13c22.5-3.9,17.2-29.9-3-29.9
					c-0.9-0.1-1.9-0.1-2.8,0"/>
			</defs>
			<clipPath id="SVGID_50_">
				<use xlink:href="#SVGID_49_"  style="overflow:visible;"/>
			</clipPath>
			<g class="st33">
				
					<linearGradient id="SVGID_51_" gradientUnits="userSpaceOnUse" x1="-2033.2178" y1="-1204.1012" x2="-2032.6194" y2="-1204.1012" gradientTransform="matrix(947.3929 -67.5776 -67.5776 -947.3929 1844902.75 -1277864.5)">
					<stop  offset="0" style="stop-color:#1097F0"/>
					<stop  offset="1" style="stop-color:#004C8C"/>
				</linearGradient>
				<polygon class="st34" points="-32,40.8 629.6,-6.4 665.8,501.2 4.2,548.4 				"/>
			</g>
		</g>
	</g>
	<path class="st28" d="M426.6,32.5c-8,0.6-14.1,7.6-13.5,15.6s7.6,14.1,15.6,13.5s14-7.6,13.5-15.6s-7.4-14.1-15.4-13.6
		C426.7,32.5,426.7,32.5,426.6,32.5"/>
	<path class="st28" d="M573.5,188.9c-5.4,0.4-9.4,5-9,10.4s5,9.4,10.4,9c5.3-0.4,9.4-5,9-10.4C583.5,192.6,578.9,188.5,573.5,188.9
		L573.5,188.9"/>
	<path class="st28" d="M565.9,228.5c-10.3,0.7-18.1,9.7-17.4,20c0.7,10.3,9.7,18.1,20,17.4l0,0c10.3-0.7,18.1-9.7,17.4-20
		C585.2,235.5,576.3,227.7,565.9,228.5"/>
	<path class="st28" d="M236.7,226.4c-11.8,0.9-20.7,11.1-19.9,23c0.9,11.8,11.1,20.7,23,19.9c11.8-0.9,20.7-11.1,19.9-22.9
		C258.9,234.6,248.6,225.6,236.7,226.4C236.8,226.4,236.8,226.4,236.7,226.4"/>
	<path class="st28" d="M26.5,457c-8.3,0.6-14.5,7.7-13.9,16s7.7,14.5,16,13.9s14.5-7.7,13.9-16S34.7,456.4,26.5,457"/>
</g>
</svg>
