<svg id="Layer_1" data-name="Layer 1" xmlns="http://www.w3.org/2000/svg" xmlns:xlink="http://www.w3.org/1999/xlink" viewBox="0 0 538.58 186.28"><defs><style>.cls-1{fill:url(#linear-gradient);}.cls-2{fill:url(#linear-gradient-3);}.cls-3{fill:url(#linear-gradient-4);}.cls-4{fill:url(#linear-gradient-5);}.cls-5{fill:url(#linear-gradient-6);}.cls-6{fill:url(#linear-gradient-7);}.cls-7{fill:#f15a27;}.cls-8{fill:#095095;}</style><linearGradient id="linear-gradient" x1="10.62" y1="68.24" x2="95.08" y2="19.47" gradientUnits="userSpaceOnUse"><stop offset="0" stop-color="#ffc811"/><stop offset="0.02" stop-color="#ffc412"/><stop offset="0.27" stop-color="#f88c19"/><stop offset="0.5" stop-color="#f3601e"/><stop offset="0.71" stop-color="#ef4023"/><stop offset="0.88" stop-color="#ed2d25"/><stop offset="1" stop-color="#ec2626"/></linearGradient><linearGradient id="linear-gradient-3" x1="-2.17" y1="65.12" x2="138.19" y2="39.62" gradientUnits="userSpaceOnUse"><stop offset="0" stop-color="#1e4384"/><stop offset="0.19" stop-color="#215898"/><stop offset="0.52" stop-color="#2578b7"/><stop offset="0.81" stop-color="#278bc9"/><stop offset="1" stop-color="#2892d0"/></linearGradient><linearGradient id="linear-gradient-4" x1="26.52" y1="76.08" x2="111.21" y2="76.08" xlink:href="#linear-gradient-3"/><linearGradient id="linear-gradient-5" x1="62.96" y1="98.1" x2="127.26" y2="36.06" gradientUnits="userSpaceOnUse"><stop offset="0" stop-color="#ee3424"/><stop offset="0.12" stop-color="#f05022"/><stop offset="0.28" stop-color="#f3711f"/><stop offset="0.45" stop-color="#f58b1d"/><stop offset="0.62" stop-color="#f69d1b"/><stop offset="0.8" stop-color="#f7a81a"/><stop offset="1" stop-color="#f7ac1a"/></linearGradient><linearGradient id="linear-gradient-6" x1="74.87" y1="107.2" x2="111.78" y2="72.7" gradientUnits="userSpaceOnUse"><stop offset="0" stop-color="#30813f"/><stop offset="0.26" stop-color="#55983e"/><stop offset="0.58" stop-color="#7cb13c"/><stop offset="0.84" stop-color="#95c03b"/><stop offset="1" stop-color="#9ec63b"/></linearGradient><linearGradient id="linear-gradient-7" x1="130.73" y1="24.6" x2="152.79" y2="2.54" gradientUnits="userSpaceOnUse"><stop offset="0" stop-color="#f58922"/><stop offset="0.01" stop-color="#f58522"/><stop offset="0.1" stop-color="#f26823"/><stop offset="0.21" stop-color="#f05024"/><stop offset="0.33" stop-color="#ee3d25"/><stop offset="0.47" stop-color="#ed3026"/><stop offset="0.64" stop-color="#ec2826"/><stop offset="1" stop-color="#ec2626"/></linearGradient></defs><title>LOGO THE GIOI MAY IN NHANH</title><path class="cls-1" d="M107.9,42.49C56.51,82.69,27.17,81.38,16.76,78.87A49.07,49.07,0,0,1,107.9,42.49Z" transform="translate(0 -0.4)"/><path class="cls-1" d="M107.9,42.49C56.51,82.69,27.17,81.38,16.76,78.87A49.07,49.07,0,0,1,107.9,42.49Z" transform="translate(0 -0.4)"/><path class="cls-2" d="M21.28,29.79S-15.4,83.06,24.8,83.06c43.55-2.51,85.09-36.52,110.05-61.81,0,0-35,50.25-101.67,68.51C-27.13,101.48,11.23,39.51,21.28,29.79Z" transform="translate(0 -0.4)"/><path class="cls-3" d="M111.21,54.84c-.42.55-25.47,33.17-73.69,48.65h0a48.51,48.51,0,0,1-7.18-5.21S62.67,90.6,84.86,71c-.92.62-30.49,20.46-58.34,21.19,0,0,41.71-3.11,83.47-43.55h0A46.13,46.13,0,0,1,111.21,54.84Z" transform="translate(0 -0.4)"/><path class="cls-4" d="M129.87,32.68a157.58,157.58,0,0,1-18.28,30.83C98.72,80.65,78.85,100.25,51.2,109a49.14,49.14,0,0,1-11-4.07s41.58-11.84,71.43-45.31A119,119,0,0,0,129.87,32.68Z" transform="translate(0 -0.4)"/><path class="cls-5" d="M111.26,67.45a49.09,49.09,0,0,1-48.68,42.92c-.51,0-1,0-1.51,0C61.07,110.34,85.06,98.65,111.26,67.45Z" transform="translate(0 -0.4)"/><polygon class="cls-6" points="121.56 15.42 138.17 16.72 141.41 32.28 150.25 0 121.56 15.42"/><path class="cls-7" d="M176,95.37V45.29H158.69V31.72h51.78V45.29H193.11V95.37Z" transform="translate(0 -0.4)"/><path class="cls-7" d="M256.48,95.37V70H234.16V95.37H217.05V31.72h17.11V56.53h22.32V31.72h17.06V95.37Z" transform="translate(0 -0.4)"/><path class="cls-7" d="M330.28,95.37H285.7V31.72h44.58V44.83H302.63V57.41h25.89v12H302.63V82.27h27.65ZM301.34,14.19h11.78l12.49,11.56h-12l-5.81-5.5h-.86l-5.53,5.5H289.32Zm24.41-7.65H337L323.37,18.15l-5.49-3.82Z" transform="translate(0 -0.4)"/><path class="cls-7" d="M397.12,53c-.62-5.13-4.62-8.86-10.92-8.86-7.39,0-12,5.22-12,15.62V67c0,8.72,2.86,16,12.3,16,7.15,0,11.06-4.43,11.06-9.23v-2.1H387.3V60.07h26.37V72.34c0,11.42-7.35,24.15-27.51,24.15C365.42,96.49,357,83.2,357,67.07V59.61c0-17.07,10.44-29,29.37-29,18.4,0,27.08,11.33,27.27,22.43Z" transform="translate(0 -0.4)"/><path class="cls-7" d="M423.15,95.37V31.72h17.12V95.37Z" transform="translate(0 -0.4)"/><path class="cls-7" d="M479.27,96.49c-18.83,0-29.51-11.38-29.51-29.28v-7c0-18.09,10.73-29.61,29.56-29.61,8.44,0,13.68,2.75,19.88,2.75,5.63,0,6.34-2.61,6.34-5.78V21h12.64v8.91c0,7.92-4.92,13.75-13.21,13.75l-.14.1a33.63,33.63,0,0,1,4,16.5v7C508.83,85.11,498.2,96.49,479.27,96.49Zm-12.06-29.1c0,10.49,4.81,15.76,12.11,15.76s12.16-5.27,12.16-15.76V60c0-10.45-4.91-15.9-12.16-15.9S467.21,49.53,467.21,60Zm16-52.87h16.64L484,25.52H469.78Z" transform="translate(0 -0.4)"/><path class="cls-7" d="M520.46,95.37V31.72h17.12V95.37Z" transform="translate(0 -0.4)"/><path class="cls-8" d="M1.36,186.68V134.91H16l13.09,27.35h.48l13.09-27.35H57.24v51.77H44.54V155.62h-.63L33.22,178.23H25.3L14.53,155.62H13.9v31.06Z" transform="translate(0 -0.4)"/><path class="cls-8" d="M62.49,186.68l17-51.77H97l16.92,51.77H98.85l-3.12-11.22h-16l-3.15,11.22Zm29-65.77h13.77l-13.1,9H80.35Zm-4,25.83-5.24,19H93.29l-5.17-19Z" transform="translate(0 -0.4)"/><path class="cls-8" d="M126.46,186.68V169.43l-18-34.52h15.42l9.67,21H134l9.7-21H158.6l-18,34.14v17.63Z" transform="translate(0 -0.4)"/><path class="cls-8" d="M178,186.68V134.91h14.16v51.77Z" transform="translate(0 -0.4)"/><path class="cls-8" d="M202.18,186.68V134.91h11l20.55,28.9h.55v-28.9h13v51.77H236.41l-20.63-29.24h-.51v29.24Z" transform="translate(0 -0.4)"/><path class="cls-8" d="M272.93,186.68V134.91h11l20.55,28.9H305v-28.9H318v51.77H307.16l-20.62-29.24H286v29.24Z" transform="translate(0 -0.4)"/><path class="cls-8" d="M360.68,186.68V166H342.22v20.67H328.07V134.91h14.15v20.18h18.46V134.91H374.8v51.77Z" transform="translate(0 -0.4)"/><path class="cls-8" d="M380.05,186.68l17-51.77h17.47l16.92,51.77H416.4l-3.11-11.22H397.24l-3.16,11.22Zm25-39.94-5.25,19h11.08l-5.16-19Z" transform="translate(0 -0.4)"/><path class="cls-8" d="M436.72,186.68V134.91h11l20.55,28.9h.55v-28.9h13.05v51.77H471l-20.63-29.24h-.51v29.24Z" transform="translate(0 -0.4)"/><path class="cls-8" d="M524.47,186.68V166H506v20.67H491.85V134.91H506v20.18h18.46V134.91h14.11v51.77Z" transform="translate(0 -0.4)"/></svg>