<?xml version="1.0" encoding="utf-8"?>
<!-- Generator: Adobe Illustrator 26.0.1, SVG Export Plug-In . SVG Version: 6.00 Build 0)  -->
<svg version="1.1" id="Layer_1" xmlns="http://www.w3.org/2000/svg" xmlns:xlink="http://www.w3.org/1999/xlink" x="0px" y="0px"
	 viewBox="0 0 700 200" style="enable-background:new 0 0 700 200;" xml:space="preserve">
<style type="text/css">
	.st0{fill:#BBBDBF;}
	.st1{fill:#F5EB0A;}
	.st2{fill-rule:evenodd;clip-rule:evenodd;fill:url(#SVGID_1_);}
	.st3{fill:#DD0F7B;}
	.st4{fill-rule:evenodd;clip-rule:evenodd;fill:url(#SVGID_00000023258914753976728300000003988498022851841439_);}
	.st5{fill:#1295D3;}
	.st6{fill-rule:evenodd;clip-rule:evenodd;fill:url(#SVGID_00000168103402792634702400000015800021933812747665_);}
	.st7{fill:#1A1718;}
	.st8{fill-rule:evenodd;clip-rule:evenodd;fill:url(#SVGID_00000132803035915439003070000011894374779919421602_);}
	.st9{fill:#1E4F8E;}
	.st10{fill:#221F1F;}
</style>
<g>
	<g>
		<g>
			<g>
				<path class="st0" d="M295.38,12.95c13.65,0,23.81,4.2,30.46,12.77c6.64,8.4,8.75,19.6,6.47,33.59
					c-4.73,27.12-22.06,40.59-51.98,40.59h-21.36l-5.25,29.91c-0.87,4.9-3.85,7.35-8.75,7.35H225.2c-5.08,0-7-2.45-6.12-7.35
					L238.33,20.3c0.86-4.89,3.83-7.35,8.74-7.35H295.38z M281.55,69.29c8.75,0,13.82-4.2,15.4-12.77c0.69-4.03,0.18-7.17-1.75-9.45
					c-1.94-2.28-5.07-3.49-9.11-3.49h-17.14l-4.55,25.71H281.55z"/>
				<path class="st0" d="M410.02,12.95c17,0,29.58,4.9,37.46,14.53c7.7,9.27,10.15,21.51,7.35,37.08l-4.54,26.24
					c-5.42,30.98-26.07,46.37-61.61,46.37h-43.04c-5.09,0-7.01-2.45-6.13-7.35L358.74,20.3c0.88-4.89,3.85-7.35,8.75-7.35H410.02z
					 M420.53,62.47c2.27-12.6-3.33-18.88-16.98-18.88h-14.18l-11.2,62.97h14.36c13.47,0,21.34-6.3,23.62-18.89L420.53,62.47z"/>
				<path class="st0" d="M474.96,56.87c2.63-15.04,9.28-26.59,19.95-34.64c10.68-7.87,24.52-11.9,41.84-11.9
					c25.2,0,39.73,10.32,43.58,31.15c0.86,4.71-1.06,7.87-5.95,9.44l-18.04,6.12c-2.8,0.87-4.72,0.87-5.96,0.35
					c-1.22-0.7-2.26-2.46-2.81-5.08c-1.55-7.52-6.83-11.37-15.92-11.37c-12.77,0-20.31,6.13-22.4,18.2l-5.78,31.84
					c-2.1,12.08,3.33,18.19,16.1,18.19c9.28,0,15.92-3.85,20.14-11.37c2.79-4.72,6.3-6.3,10.33-4.72l18.2,7
					c4.54,1.57,5.59,4.72,2.97,9.44c-11.03,20.12-29.76,30.27-56.53,30.27c-16.98,0-29.4-4.73-37.63-13.99
					c-7.87-9.1-10.51-21.35-7.87-36.57L474.96,56.87z"/>
				<path class="st0" d="M694.81,130c0.87,4.73-1.23,7.18-6.49,7.18h-18.2c-4.38,0-7.35-0.52-8.93-1.57
					c-1.58-1.06-2.63-2.99-2.8-5.78l-1.75-12.59h-37.97l-6.13,12.59c-2.28,4.9-7.01,7.35-14.01,7.35h-19.25
					c-4.89,0-5.95-2.45-3.32-7.18l59.85-110.92c2.1-4.03,5.44-6.13,10.15-6.13h19.78c4.72,0,7.53,1.93,8.24,5.77L694.81,130z
					 M650.69,69.29c-0.88-7.87-0.69-16.1,0.53-24.5h-1.57c-1.57,8.4-4.19,16.45-7.87,24.32l-9.98,20.65h21.69L650.69,69.29z"/>
			</g>
		</g>
	</g>
	<g>
		<g>
			<g>
				<path class="st1" d="M42.43,169.69l55.91-42.63c4.45-3.39,9.75-5.06,15.03-5.05c6.39,0.02,12.75,2.47,17.5,7.27l14.24,14.28
					c-2.22-0.61-5.18-0.8-7.9-0.8c-8.01-0.01-20.9,5.92-26.83,10.45c-12.77,9.74-38.17,29.12-50.91,38.81
					c-6.16,4.69-14.97,3.5-19.68-2.66C35.1,183.18,36.28,174.39,42.43,169.69"/>
				
					<linearGradient id="SVGID_1_" gradientUnits="userSpaceOnUse" x1="1237.5372" y1="-6160.668" x2="1199.8032" y2="-6152.1934" gradientTransform="matrix(1.900000e-03 -1 1 1.900000e-03 6293.0005 1392.1021)">
					<stop  offset="0" style="stop-color:#8C8A34"/>
					<stop  offset="1" style="stop-color:#F5EB0A"/>
				</linearGradient>
				<path class="st2" d="M113.18,151.27l26.04,26.14c5.46,5.49,14.35,5.5,19.85,0.04c5.49-5.46,5.51-14.37,0.03-19.85l-14-14.05
					c-2.59-0.7-5.18-0.78-7.9-0.8C126.42,142.73,113.18,151.27,113.18,151.27z"/>
			</g>
			<g>
				<path class="st3" d="M30.17,42.38l42.76,55.81c3.41,4.44,5.08,9.74,5.08,15.02c0,6.38-2.45,12.74-7.23,17.51l-14.26,14.26
					c0.61-2.22,0.79-5.19,0.79-7.9c0-8-5.98-20.9-10.51-26.82C37.04,97.52,17.61,72.16,7.88,59.44c-4.7-6.15-3.53-14.95,2.62-19.68
					C16.67,35.05,25.46,36.21,30.17,42.38"/>
				
					<linearGradient id="SVGID_00000109724144855191578880000001865845651784650131_" gradientUnits="userSpaceOnUse" x1="57.1837" y1="134.5625" x2="19.4594" y2="143.0354">
					<stop  offset="0" style="stop-color:#821849"/>
					<stop  offset="0.0149" style="stop-color:#84184B"/>
					<stop  offset="0.2954" style="stop-color:#A7185E"/>
					<stop  offset="0.5608" style="stop-color:#C2146D"/>
					<stop  offset="0.8028" style="stop-color:#D41076"/>
					<stop  offset="1" style="stop-color:#DD0F7B"/>
				</linearGradient>
				<path style="fill-rule:evenodd;clip-rule:evenodd;fill:url(#SVGID_00000109724144855191578880000001865845651784650131_);" d="
					M48.73,113.08l-26.08,26.09c-5.47,5.47-5.47,14.36,0,19.85c5.47,5.48,14.37,5.48,19.85,0l14.01-14.03
					c0.69-2.59,0.79-5.19,0.79-7.9C57.29,126.29,48.73,113.08,48.73,113.08z"/>
			</g>
			<g>
				<path class="st5" d="M157.63,30.31l-55.91,42.63c-4.43,3.4-9.74,5.06-15.02,5.05c-6.39-0.01-12.74-2.46-17.5-7.27L54.95,56.44
					c2.24,0.61,5.2,0.8,7.92,0.8c7.99,0.01,20.9-5.92,26.83-10.44c12.76-9.74,38.15-29.13,50.91-38.81
					c6.15-4.69,14.95-3.51,19.67,2.65C164.99,16.81,163.8,25.61,157.63,30.31"/>
				
					<linearGradient id="SVGID_00000160189927635940739020000001093473121162082186_" gradientUnits="userSpaceOnUse" x1="8097.7495" y1="1702.6545" x2="8060.0176" y2="1711.1292" gradientTransform="matrix(-1.900000e-03 1 -1 -1.900000e-03 1783.4342 -8037.3784)">
					<stop  offset="0" style="stop-color:#015B80"/>
					<stop  offset="0.0391" style="stop-color:#045E84"/>
					<stop  offset="0.3167" style="stop-color:#1273A1"/>
					<stop  offset="0.5776" style="stop-color:#1684B9"/>
					<stop  offset="0.8128" style="stop-color:#1690CA"/>
					<stop  offset="1" style="stop-color:#1295D3"/>
				</linearGradient>
				<path style="fill-rule:evenodd;clip-rule:evenodd;fill:url(#SVGID_00000160189927635940739020000001093473121162082186_);" d="
					M86.89,48.73L60.85,22.58c-5.47-5.48-14.35-5.5-19.84-0.03c-5.49,5.46-5.51,14.36-0.03,19.84l13.97,14.05
					c2.6,0.7,5.2,0.79,7.92,0.8C73.66,57.26,86.89,48.73,86.89,48.73z"/>
			</g>
			<path class="st7" d="M169.73,157.7l-42.63-55.9c-3.4-4.44-5.06-9.75-5.06-15.03c0.02-6.39,2.48-12.73,7.26-17.5l14.31-14.23
				c-0.62,2.24-0.8,5.2-0.81,7.9c-0.02,8.02,5.91,20.92,10.44,26.85c9.74,12.76,29.12,38.16,38.81,50.89
				c4.7,6.17,3.51,14.97-2.65,19.68C183.24,165.05,174.43,163.88,169.73,157.7"/>
			
				<linearGradient id="SVGID_00000099632920885479328820000010724734809969516195_" gradientUnits="userSpaceOnUse" x1="9158.6611" y1="-5703.832" x2="9120.9336" y2="-5695.3584" gradientTransform="matrix(-1 -1.900000e-03 1.900000e-03 -1 9312.4043 -5620.9673)">
				<stop  offset="0" style="stop-color:#3A3837"/>
				<stop  offset="0.1738" style="stop-color:#323030"/>
				<stop  offset="0.4884" style="stop-color:#262423"/>
				<stop  offset="0.7732" style="stop-color:#1D1B1B"/>
				<stop  offset="1" style="stop-color:#1A1718"/>
			</linearGradient>
			<path style="fill-rule:evenodd;clip-rule:evenodd;fill:url(#SVGID_00000099632920885479328820000010724734809969516195_);" d="
				M151.32,86.97l26.14-26.03c5.47-5.47,5.51-14.35,0.03-19.85c-5.46-5.5-14.35-5.52-19.84-0.04l-14.04,14
				c-0.71,2.59-0.8,5.2-0.81,7.9C142.78,73.73,151.32,86.97,151.32,86.97z"/>
		</g>
		<g>
			<g>
				<path class="st9" d="M290.64,12.95c13.65,0,23.81,4.2,30.46,12.77c6.64,8.4,8.75,19.6,6.47,33.59
					c-4.73,27.12-22.06,40.59-51.98,40.59h-21.36L249,129.82c-0.87,4.9-3.85,7.35-8.75,7.35h-19.78c-5.08,0-7-2.45-6.12-7.35
					L233.6,20.3c0.86-4.89,3.83-7.35,8.74-7.35H290.64z M276.82,69.29c8.75,0,13.82-4.2,15.4-12.77c0.69-4.03,0.18-7.17-1.75-9.45
					c-1.94-2.28-5.07-3.49-9.11-3.49h-17.14l-4.55,25.71H276.82z"/>
				<path class="st9" d="M405.29,12.95c17,0,29.58,4.9,37.46,14.53c7.7,9.27,10.15,21.51,7.35,37.08l-4.54,26.24
					c-5.42,30.98-26.07,46.37-61.61,46.37h-43.04c-5.09,0-7.01-2.45-6.13-7.35L354.01,20.3c0.88-4.89,3.85-7.35,8.75-7.35H405.29z
					 M415.8,62.47c2.27-12.6-3.33-18.88-16.98-18.88h-14.18l-11.2,62.97h14.36c13.47,0,21.34-6.3,23.62-18.89L415.8,62.47z"/>
				<path class="st9" d="M470.23,56.87c2.63-15.04,9.28-26.59,19.95-34.64c10.68-7.87,24.52-11.9,41.84-11.9
					c25.2,0,39.73,10.32,43.58,31.15c0.86,4.71-1.06,7.87-5.95,9.44l-18.04,6.12c-2.8,0.87-4.72,0.87-5.96,0.35
					c-1.22-0.7-2.26-2.46-2.81-5.08c-1.55-7.52-6.83-11.37-15.92-11.37c-12.77,0-20.31,6.13-22.4,18.2l-5.78,31.84
					c-2.1,12.08,3.33,18.19,16.1,18.19c9.28,0,15.92-3.85,20.14-11.37c2.79-4.72,6.3-6.3,10.33-4.72l18.2,7
					c4.54,1.57,5.59,4.72,2.97,9.44c-11.02,20.12-29.75,30.27-56.53,30.27c-16.98,0-29.4-4.73-37.63-13.99
					c-7.87-9.1-10.51-21.35-7.87-36.57L470.23,56.87z"/>
				<path class="st9" d="M690.08,130c0.87,4.73-1.23,7.18-6.49,7.18h-18.2c-4.38,0-7.35-0.52-8.93-1.57
					c-1.58-1.06-2.63-2.99-2.8-5.78l-1.75-12.59h-37.97l-6.13,12.59c-2.28,4.9-7.01,7.35-14.01,7.35h-19.25
					c-4.89,0-5.95-2.45-3.32-7.18l59.85-110.92c2.1-4.03,5.44-6.13,10.15-6.13h19.78c4.72,0,7.53,1.93,8.24,5.77L690.08,130z
					 M645.96,69.29c-0.88-7.87-0.69-16.1,0.53-24.5h-1.57c-1.57,8.4-4.19,16.45-7.87,24.32l-9.98,20.65h21.69L645.96,69.29z"/>
			</g>
			<g>
				<g>
					<path class="st10" d="M236.99,164.08h-5.42c-0.37-1.26-0.81-2.19-1.34-2.79c-0.99-1.13-2.45-1.7-4.38-1.7
						c-1.68,0-3.09,0.59-4.2,1.77c-1.5,1.57-2.24,4.02-2.24,7.35c0,2.53,0.49,4.58,1.48,6.15c1.14,1.79,2.8,2.68,4.96,2.68
						c1.5,0,2.74-0.42,3.74-1.25c1-0.84,1.66-2.04,1.98-3.6h5.42c-0.58,2.94-1.77,5.25-3.59,6.91c-1.98,1.81-4.54,2.72-7.7,2.72
						c-3.54,0-6.38-1.16-8.51-3.48c-2.24-2.43-3.36-5.82-3.36-10.19c0-4.39,1.16-7.82,3.48-10.28c2.17-2.31,4.99-3.46,8.46-3.46
						c3.57,0,6.41,1.05,8.53,3.14C236.09,159.81,236.99,161.83,236.99,164.08z"/>
					<path class="st10" d="M247.11,176.23l-1.8,5.35h-5.72l9.26-25.96h6.31l9.11,25.96h-5.86l-1.66-5.35H247.11z M253.31,153.21
						h-2.58c0-1.12,0.1-1.97,0.31-2.54c0.21-0.58,0.65-1.1,1.32-1.58c0.68-0.48,1.02-0.97,1.02-1.48c0-0.51-0.13-0.87-0.4-1.08
						c-0.27-0.21-0.57-0.32-0.93-0.32c-0.55,0-0.94,0.15-1.15,0.46c-0.21,0.31-0.32,0.78-0.32,1.43l-2.83,0.05
						c0-1.57,0.45-2.71,1.36-3.43c0.76-0.61,1.7-0.92,2.79-0.92c0.97,0,1.81,0.19,2.54,0.57c1.26,0.65,1.89,1.7,1.89,3.14
						c0,0.68-0.16,1.26-0.49,1.72c-0.32,0.47-0.83,0.94-1.52,1.43C253.65,151.17,253.31,152.01,253.31,153.21z M248.56,171.74h6.66
						l-3.27-10.28L248.56,171.74z"/>
					<path class="st10" d="M292.89,155.61v25.96h-5.05v-21.71l-4.93,21.71h-5.35l-4.7-21.71l-0.07,21.71h-5.07v-25.96h7.88
						l4.72,20.47l4.7-20.47H292.89z"/>
					<path class="st10" d="M325.8,155.61h5.07v25.96h-5.42l-10.56-18.53l-0.07,18.53h-5.07v-25.96h5.72l10.26,18.09L325.8,155.61z"
						/>
					<path class="st10" d="M352.65,169.94h-10.14v11.64h-5.42v-25.96h5.42v9.84h10.14v-9.84h5.42v25.96h-5.42V169.94z"/>
					<path class="st10" d="M369.36,176.23l-1.8,5.35h-5.72l9.26-25.96h6.31l9.11,25.96h-5.86l-1.66-5.35H369.36z M376.4,147.72
						l4.13,5.28h-4.06l-2.31-2.97l-2.31,2.97h-4.05l4.12-5.28H376.4z M370.81,171.74h6.66l-3.27-10.28L370.81,171.74z
						 M376.44,183.75v4.19h-4.56v-4.19H376.44z"/>
					<path class="st10" d="M406.03,155.61h5.07v25.96h-5.42l-10.56-18.53l-0.07,18.53h-5.07v-25.96h5.72l10.26,18.09L406.03,155.61z
						"/>
					<path class="st10" d="M426.78,173.54h5.21c0,1.06,0.31,1.94,0.94,2.65c0.94,1.04,2.46,1.55,4.56,1.55
						c1.57,0,2.78-0.21,3.66-0.62c1.18-0.55,1.77-1.46,1.77-2.72c0-0.91-0.43-1.61-1.29-2.12c-0.61-0.36-1.75-0.74-3.41-1.13
						l-2.83-0.65c-2.77-0.62-4.66-1.28-5.67-1.98c-1.72-1.19-2.58-3.06-2.58-5.62c0-2,0.62-3.7,1.85-5.1
						c1.71-1.94,4.42-2.91,8.14-2.91c3.54,0,6.22,1,8.02,3c1.4,1.54,2.1,3.34,2.1,5.39h-5.21c-0.12-1.04-0.42-1.83-0.9-2.38
						c-0.87-1.01-2.33-1.52-4.38-1.52c-1.22,0-2.25,0.22-3.07,0.67c-0.99,0.57-1.48,1.38-1.48,2.44c0,0.88,0.31,1.55,0.94,2.01
						c0.36,0.27,0.97,0.51,1.82,0.72l6.36,1.52c2.15,0.53,3.74,1.22,4.75,2.07c1.37,1.15,2.05,2.81,2.05,4.96
						c0,2.63-0.87,4.66-2.6,6.11c-1.93,1.61-4.49,2.42-7.67,2.42c-4.18,0-7.21-1.05-9.08-3.14
						C427.45,177.66,426.78,175.79,426.78,173.54z"/>
					<path class="st10" d="M473.96,156.69c0.48-0.27,0.78-0.57,0.9-0.89c0.12-0.32,0.18-0.8,0.18-1.42h-1.87v-2.97h4.26v3.04
						c0,1.79-1.15,3.26-3.46,4.42v13.6c0,3.36-0.95,5.85-2.86,7.49c-1.81,1.57-4.43,2.35-7.84,2.35c-1.47,0-2.85-0.21-4.13-0.62
						c-1.71-0.55-3.08-1.41-4.12-2.56c-1.35-1.57-2.03-3.67-2.03-6.31v-17.2h5.56v16.85c0,1.71,0.44,3,1.31,3.89
						c0.87,0.88,1.98,1.32,3.34,1.32c1.78,0,3.09-0.42,3.93-1.27c0.84-0.85,1.26-2.09,1.26-3.73v-17.06h5.58V156.69z M465.75,183.75
						v4.19h-4.56v-4.19H465.75z"/>
					<path class="st10" d="M495.93,172.75v8.83h-5.42v-25.96h5.42v10.56l9.91-10.56h7.03l-10.63,10.63l11.2,15.33h-6.94l-8.02-11.43
						L495.93,172.75z"/>
					<path class="st10" d="M532.76,169.94h-10.14v11.64h-5.42v-25.96h5.42v9.84h10.14v-9.84h5.42v25.96h-5.42V169.94z"/>
					<path class="st10" d="M549.47,176.23l-1.8,5.35h-5.72l9.26-25.96h6.31l9.11,25.96h-5.86l-1.66-5.35H549.47z M550.92,171.74
						h6.66l-3.27-10.28L550.92,171.74z M561.23,147.72l-5.37,5.28h-3.6l3.39-5.28H561.23z"/>
					<path class="st10" d="M592.3,164.08h-5.42c-0.37-1.26-0.81-2.19-1.34-2.79c-0.99-1.13-2.45-1.7-4.38-1.7
						c-1.68,0-3.09,0.59-4.2,1.77c-1.5,1.57-2.24,4.02-2.24,7.35c0,2.53,0.49,4.58,1.48,6.15c1.14,1.79,2.8,2.68,4.96,2.68
						c1.5,0,2.74-0.42,3.74-1.25c1-0.84,1.66-2.04,1.98-3.6h5.42c-0.58,2.94-1.77,5.25-3.59,6.91c-1.98,1.81-4.55,2.72-7.7,2.72
						c-3.54,0-6.38-1.16-8.51-3.48c-2.24-2.43-3.36-5.82-3.36-10.19c0-4.39,1.16-7.82,3.48-10.28c2.17-2.31,4.99-3.46,8.46-3.46
						c3.57,0,6.41,1.05,8.53,3.14C591.41,159.81,592.3,161.83,592.3,164.08z"/>
					<path class="st10" d="M608.2,181.58v-25.96h12.66c2.84,0,4.96,0.77,6.36,2.31c1.06,1.18,1.59,2.62,1.59,4.33
						c0,1.63-0.38,2.9-1.15,3.83c-0.46,0.57-1.14,1.05-2.03,1.45c1.5,0.59,2.57,1.47,3.22,2.65c0.57,0.99,0.85,2.21,0.85,3.66
						c0,1.06-0.19,2.04-0.58,2.94c-0.39,0.9-0.94,1.7-1.66,2.41c-0.9,0.85-1.79,1.43-2.68,1.73c-1.26,0.44-3.11,0.65-5.56,0.65
						H608.2z M613.41,160.08v5.65h6.36c1.17,0,2.07-0.22,2.72-0.65c0.74-0.51,1.11-1.25,1.11-2.24c0-1.01-0.33-1.72-0.99-2.14
						c-0.66-0.41-1.65-0.62-2.99-0.62H613.41z M613.41,170.15v6.94h6.66c1.37,0,2.4-0.31,3.12-0.92c0.71-0.61,1.07-1.58,1.07-2.91
						c0-1.04-0.37-1.81-1.12-2.33c-0.75-0.52-1.68-0.78-2.78-0.78H613.41z"/>
					<path class="st10" d="M640.47,155.61v25.96h-5.42v-25.96H640.47z"/>
					<path class="st10" d="M665.2,155.61v4.56h-13.74v5.49h12.66v4.56h-12.66v6.73h14.4v4.63h-19.75v-25.96H665.2z M658.22,147.72
						l4.13,5.28h-4.06l-2.31-2.97l-2.31,2.97h-4.04l4.12-5.28H658.22z M658.05,183.75v4.19h-4.56v-4.19H658.05z"/>
					<path class="st10" d="M682.42,160.17v21.41h-5.44v-21.41h-7.88v-4.56h21.13v4.56H682.42z"/>
				</g>
			</g>
		</g>
	</g>
</g>
</svg>
